<mxfile host="app.diagrams.net" modified="2023-07-30T06:51:43.161Z" agent="Mozilla/5.0 (Windows NT 10.0; Win64; x64; rv:109.0) Gecko/20100101 Firefox/115.0" etag="ioE5HgNE9qN52uuwbaWw" version="21.6.6" type="device">
  <diagram name="Page-1" id="VZIIqRRXdtm2IghGHygO">
    <mxGraphModel dx="662" dy="360" grid="1" gridSize="10" guides="1" tooltips="1" connect="1" arrows="1" fold="1" page="1" pageScale="1" pageWidth="1100" pageHeight="850" math="0" shadow="0">
      <root>
        <mxCell id="0" />
        <mxCell id="1" parent="0" />
        <mxCell id="YESu-HOX8M76TlfMSpM7-1" value="&lt;font style=&quot;font-size: 20px;&quot;&gt;Octree Nearest Neighbor&lt;br&gt;&lt;/font&gt;" style="text;html=1;strokeColor=none;fillColor=none;align=center;verticalAlign=middle;whiteSpace=wrap;rounded=0;" vertex="1" parent="1">
          <mxGeometry width="240" height="40" as="geometry" />
        </mxCell>
        <mxCell id="YESu-HOX8M76TlfMSpM7-3" value="" style="whiteSpace=wrap;html=1;aspect=fixed;" vertex="1" parent="1">
          <mxGeometry x="39" y="40" width="80" height="80" as="geometry" />
        </mxCell>
        <mxCell id="YESu-HOX8M76TlfMSpM7-4" value="" style="whiteSpace=wrap;html=1;aspect=fixed;" vertex="1" parent="1">
          <mxGeometry x="119" y="40" width="80" height="80" as="geometry" />
        </mxCell>
        <mxCell id="YESu-HOX8M76TlfMSpM7-5" value="" style="whiteSpace=wrap;html=1;aspect=fixed;" vertex="1" parent="1">
          <mxGeometry x="39" y="120" width="80" height="80" as="geometry" />
        </mxCell>
        <mxCell id="YESu-HOX8M76TlfMSpM7-6" value="" style="whiteSpace=wrap;html=1;aspect=fixed;" vertex="1" parent="1">
          <mxGeometry x="119" y="120" width="80" height="80" as="geometry" />
        </mxCell>
        <mxCell id="YESu-HOX8M76TlfMSpM7-7" value="" style="verticalLabelPosition=bottom;verticalAlign=top;html=1;shape=mxgraph.basic.6_point_star" vertex="1" parent="1">
          <mxGeometry x="49" y="50" width="20" height="17" as="geometry" />
        </mxCell>
        <mxCell id="YESu-HOX8M76TlfMSpM7-8" value="" style="verticalLabelPosition=bottom;verticalAlign=top;html=1;shape=mxgraph.basic.6_point_star" vertex="1" parent="1">
          <mxGeometry x="69" y="100" width="20" height="17" as="geometry" />
        </mxCell>
        <mxCell id="YESu-HOX8M76TlfMSpM7-9" value="" style="verticalLabelPosition=bottom;verticalAlign=top;html=1;shape=mxgraph.basic.6_point_star" vertex="1" parent="1">
          <mxGeometry x="129" y="67" width="20" height="17" as="geometry" />
        </mxCell>
        <mxCell id="YESu-HOX8M76TlfMSpM7-10" value="" style="verticalLabelPosition=bottom;verticalAlign=top;html=1;shape=mxgraph.basic.6_point_star" vertex="1" parent="1">
          <mxGeometry x="129" y="130" width="20" height="17" as="geometry" />
        </mxCell>
        <mxCell id="YESu-HOX8M76TlfMSpM7-11" value="" style="verticalLabelPosition=bottom;verticalAlign=top;html=1;shape=mxgraph.basic.6_point_star" vertex="1" parent="1">
          <mxGeometry x="49" y="157" width="20" height="17" as="geometry" />
        </mxCell>
        <mxCell id="YESu-HOX8M76TlfMSpM7-12" value="" style="verticalLabelPosition=bottom;verticalAlign=top;html=1;shape=mxgraph.basic.6_point_star" vertex="1" parent="1">
          <mxGeometry x="179" y="157" width="20" height="17" as="geometry" />
        </mxCell>
        <mxCell id="YESu-HOX8M76TlfMSpM7-13" value="" style="verticalLabelPosition=bottom;verticalAlign=top;html=1;shape=mxgraph.basic.6_point_star" vertex="1" parent="1">
          <mxGeometry x="139" y="180" width="20" height="17" as="geometry" />
        </mxCell>
        <mxCell id="YESu-HOX8M76TlfMSpM7-14" value="" style="verticalLabelPosition=bottom;verticalAlign=top;html=1;shape=mxgraph.basic.6_point_star" vertex="1" parent="1">
          <mxGeometry x="89" y="150" width="20" height="17" as="geometry" />
        </mxCell>
        <mxCell id="YESu-HOX8M76TlfMSpM7-15" value="" style="verticalLabelPosition=bottom;verticalAlign=top;html=1;shape=mxgraph.basic.6_point_star;fillColor=#dae8fc;strokeColor=#6c8ebf;" vertex="1" parent="1">
          <mxGeometry x="99" y="50" width="20" height="17" as="geometry" />
        </mxCell>
        <mxCell id="YESu-HOX8M76TlfMSpM7-16" value="" style="endArrow=classic;html=1;rounded=0;exitX=0;exitY=0.5;exitDx=0;exitDy=0;exitPerimeter=0;entryX=1;entryY=0.5;entryDx=0;entryDy=0;entryPerimeter=0;" edge="1" parent="1" source="YESu-HOX8M76TlfMSpM7-15" target="YESu-HOX8M76TlfMSpM7-7">
          <mxGeometry width="50" height="50" relative="1" as="geometry">
            <mxPoint x="229" y="160" as="sourcePoint" />
            <mxPoint x="279" y="110" as="targetPoint" />
          </mxGeometry>
        </mxCell>
        <mxCell id="YESu-HOX8M76TlfMSpM7-17" value="" style="endArrow=classic;html=1;rounded=0;exitX=0;exitY=0.25;exitDx=0;exitDy=0;entryX=0.24;entryY=0;entryDx=0;entryDy=0;entryPerimeter=0;dashed=1;" edge="1" parent="1" source="YESu-HOX8M76TlfMSpM7-4" target="YESu-HOX8M76TlfMSpM7-9">
          <mxGeometry width="50" height="50" relative="1" as="geometry">
            <mxPoint x="229" y="100" as="sourcePoint" />
            <mxPoint x="279" y="50" as="targetPoint" />
          </mxGeometry>
        </mxCell>
      </root>
    </mxGraphModel>
  </diagram>
</mxfile>
